<svg width="623" height="174" viewBox="0 0 623 174" fill="none" xmlns="http://www.w3.org/2000/svg">
<path d="M104.398 23.2038H42.9195C27.4539 23.2038 23.1999 27.4571 23.1999 42.9234V56.0698H104.398V92.4155C104.398 119.096 88.1587 135.335 61.4785 135.335H0V112.135H61.4785C76.9456 112.135 81.1982 107.882 81.1982 92.4155V79.2692H0V42.9234C0 16.2432 16.2408 0.00390625 42.9195 0.00390625H104.398V23.2038Z" fill="white"/>
<path d="M139.114 0.0066078V38.6721H162.314V61.872H139.114V104.985C139.114 112.138 139.114 112.138 146.268 112.138H162.313V135.338H146.268C127.708 135.338 115.914 123.545 115.914 104.986V0L139.114 0.0066078Z" fill="white"/>
<path d="M208.85 76.5554H245.582C245.389 66.309 240.749 61.862 230.502 61.862H212.328C201.889 61.862 197.248 66.502 197.248 76.9422V97.0487C197.248 107.488 201.888 112.129 212.328 112.129H257.181V135.329H212.328C190.676 135.329 174.05 118.703 174.05 97.0502V76.9437C174.05 55.2912 190.676 38.665 212.328 38.665H230.502C252.154 38.665 268.781 55.2912 268.781 76.9437V99.7567H208.848L208.85 76.5554Z" fill="white"/>
<path d="M299.862 150.795H320.162C343.555 150.795 352.062 142.288 352.062 118.895V93.762C352.062 70.3687 343.555 61.8621 320.162 61.8621H303.729V80.2277C303.729 103.621 312.235 112.128 335.629 112.128H340.462V135.327H335.629C301.022 135.327 280.529 114.834 280.529 80.2292V38.6709H320.162C354.768 38.6709 375.26 59.1642 375.26 93.7692V118.902C375.26 153.508 354.767 174 320.162 174H299.862V150.795Z" fill="white"/>
<path d="M387.006 0.00683594H410.206V23.2067H387.006V0.00683594Z" fill="#10B981"/>
<path d="M387.006 38.6641H410.206V135.328H387.006V38.6641Z" fill="white"/>
<path d="M493.276 135.335V93.7696C493.276 70.3763 484.769 61.8697 461.376 61.8697H444.944V135.335H421.732V38.6641H461.365C495.971 38.6641 516.463 59.1574 516.463 93.7624V135.328H493.263L493.276 135.335Z" fill="white"/>
<path d="M563.012 76.5554H599.744C599.551 66.309 594.911 61.862 584.664 61.862H566.49C556.051 61.862 551.41 66.502 551.41 76.9422V97.0487C551.41 107.488 556.05 112.129 566.49 112.129H611.343V135.329H566.49C544.838 135.329 528.212 118.703 528.212 97.0502V76.9437C528.212 55.2912 544.838 38.665 566.49 38.665H584.664C606.316 38.665 622.943 55.2912 622.943 76.9437V99.7567H563.01L563.012 76.5554Z" fill="white"/>
</svg>
